# xmcd
#
# Track frame offsets: 
#        150
#        15448
#        30358
#        50699
#        71300
#        87667
#        104234
#        117188
#        130225
#        155146
#        170805
#        184445
#        209132
#        230834
#
# Disc length: 3255 seconds
#
# Revision: 0
# Processed by: cddbd v1.5.2PL0 Copyright (c) Steve Scherf et al.
# Submitted via: ExactAudioCopy v1.3
#
DISCID=d50cb50e
DTITLE=Fred James and Mary-Ann Brandon  - We Belong Together
DYEAR=2010
DGENRE=Blues
TTITLE0=Wrong Train, Right Track 
TTITLE1=We Belong Together 
TTITLE2=We're All In It Together 
TTITLE3=No Easy Way Out 
TTITLE4=Go Ahead On 
TTITLE5=Snakin' Up On You 
TTITLE6=No More One More Chance 
TTITLE7=I Do Declare 
TTITLE8=We Got A Secret 
TTITLE9=Sleeping With The Devil 
TTITLE10=Check Out Her Mama 
TTITLE11=I Can't Do That 
TTITLE12=A Fool's Advice 
TTITLE13=He's Cool and She's Hot 
EXTD=
EXTT0=
EXTT1=
EXTT2=
EXTT3=
EXTT4=
EXTT5=
EXTT6=
EXTT7=
EXTT8=
EXTT9=
EXTT10=
EXTT11=
EXTT12=
EXTT13=
PLAYORDER=
